<?xml version="1.0" encoding="UTF-8"?><svg id="a" xmlns="http://www.w3.org/2000/svg" viewBox="0 0 524.86 247.22"><defs><style>.b{fill:#fff;}</style></defs><g><path class="b" d="M61.19,169.84c-2.78,.98-5.68,1.68-8.68,2.11l31.02,31.02v-10.78l-22.34-22.34Z"/><path class="b" d="M29.6,143.64c1.48-1.48,3.91-1.48,5.39,0l26.2,26.2c9.11-3.2,16.88-9.2,22.34-16.95v-26.88c-24.64-2.96-44.9-20.08-52.44-42.99C13.01,89.21,0,106.31,0,126.48c0,25.39,20.58,45.97,45.97,45.97,2.23,0,4.4-.2,6.54-.51l-22.91-22.91c-1.48-1.48-1.48-3.91,0-5.39Z"/><path class="b" d="M146.84,120.18c1.48-1.48,3.91-1.48,5.39,0,1.48,1.48,1.48,3.91,0,5.39l-40,40c7.02,4.34,15.25,6.88,24.11,6.88,25.39,0,45.97-20.58,45.97-45.97,0-20.17-13.01-37.27-31.09-43.46-7.54,22.91-27.81,40.03-52.44,42.99v26.88c2.1,2.97,4.52,5.7,7.25,8.1"/><path class="b" d="M98.78,168.24v10.78l13.45-13.45c-2.2-1.36-4.27-2.89-6.2-4.58l-7.25,7.25Z"/><path class="b" d="M83.53,100.02v-14.78c0-4.19,3.43-7.62,7.62-7.62s7.62,3.43,7.62,7.62v14.78c8.31-11.8,22.03-19.51,37.56-19.51,5.22,0,10.21,.91,14.88,2.51,2.05-6.22,3.17-12.87,3.17-19.78C154.4,28.31,126.08,0,91.16,0S27.92,28.31,27.92,63.24c0,6.91,1.12,13.55,3.17,19.78,4.67-1.6,9.67-2.51,14.88-2.51,15.53,0,29.25,7.71,37.56,19.51Z"/><path class="b" d="M83.53,126.01v-25.99c-8.31-11.8-22.03-19.51-37.56-19.51-5.22,0-10.21,.91-14.88,2.51,7.54,22.91,27.81,40.03,52.44,42.99Z"/><path class="b" d="M98.78,100.02v25.99c24.64-2.96,44.9-20.08,52.44-42.99-4.67-1.6-9.67-2.51-14.88-2.51-15.53,0-29.25,7.71-37.56,19.51Z"/><path class="b" d="M92.27,180.15c-1.48-1.48-1.48-3.91,0-5.39l6.51-6.51v-15.35c-3.75-5.32-6.41-11.45-7.62-18.1-1.22,6.65-3.88,12.78-7.62,18.1v39.29l6.03,6.03c1.48,1.48,1.48,3.91,0,5.39s-3.91,1.48-5.39,0l-.64-.64v36.63c0,4.19,3.43,7.62,7.62,7.62s7.62-3.43,7.62-7.62v-60.57l-1.12,1.12c-1.48,1.48-3.91,1.48-5.39,0Z"/><path class="b" d="M89.57,203.61c1.48-1.48,1.48-3.91,0-5.39l-6.03-6.03v10.78l.64,.64c1.48,1.48,3.91,1.48,5.39,0Z"/><path class="b" d="M92.27,174.75c-1.48,1.48-1.48,3.91,0,5.39s3.91,1.48,5.39,0l1.12-1.12v-10.78l-6.51,6.51Z"/></g><g><path class="b" d="M273.08,53.02v21.84h-36.9v101.5h-25.94V74.86h-37.07v-21.84h99.91Z"/><path class="b" d="M322.7,107.16c-9.6,0-16.04,3.12-19.33,9.37-1.84,3.51-2.76,8.93-2.76,16.23v43.6h-24.02V85.15h22.76v15.9c3.68-6.08,6.89-10.24,9.62-12.47,4.46-3.74,10.26-5.61,17.41-5.61,.45,0,.82,.01,1.13,.04,.31,.03,.99,.07,2.05,.13v24.43c-1.51-.17-2.84-.28-4.02-.33-1.17-.05-2.12-.08-2.84-.08Z"/><path class="b" d="M421.61,149.59c-.62,5.41-3.43,10.91-8.45,16.48-7.81,8.87-18.75,13.3-32.8,13.3-11.6,0-21.84-3.74-30.71-11.21-8.87-7.47-13.3-19.64-13.3-36.48,0-15.79,4-27.89,12.01-36.32,8-8.42,18.39-12.64,31.17-12.64,7.59,0,14.42,1.42,20.5,4.27,6.08,2.84,11.1,7.34,15.06,13.47,3.57,5.41,5.89,11.69,6.95,18.83,.61,4.18,.87,10.21,.75,18.07h-62.42c.33,9.15,3.21,15.56,8.62,19.25,3.29,2.29,7.25,3.43,11.88,3.43,4.91,0,8.9-1.39,11.97-4.18,1.67-1.51,3.15-3.6,4.43-6.28h24.35Zm-23.6-27.95c-.39-6.3-2.3-11.09-5.73-14.35-3.43-3.26-7.68-4.89-12.76-4.89-5.52,0-9.81,1.73-12.84,5.19-3.04,3.46-4.95,8.15-5.73,14.06h37.07Z"/><path class="b" d="M516.92,149.59c-.62,5.41-3.43,10.91-8.45,16.48-7.81,8.87-18.75,13.3-32.8,13.3-11.6,0-21.84-3.74-30.71-11.21-8.87-7.47-13.3-19.64-13.3-36.48,0-15.79,4-27.89,12.01-36.32,8.01-8.42,18.4-12.64,31.17-12.64,7.59,0,14.42,1.42,20.5,4.27s11.1,7.34,15.06,13.47c3.57,5.41,5.89,11.69,6.95,18.83,.61,4.18,.87,10.21,.75,18.07h-62.42c.33,9.15,3.21,15.56,8.62,19.25,3.29,2.29,7.25,3.43,11.88,3.43,4.91,0,8.9-1.39,11.97-4.18,1.67-1.51,3.15-3.6,4.43-6.28h24.35Zm-23.6-27.95c-.39-6.3-2.3-11.09-5.73-14.35-3.43-3.26-7.68-4.89-12.76-4.89-5.52,0-9.81,1.73-12.84,5.19-3.04,3.46-4.95,8.15-5.73,14.06h37.07Z"/></g><g><path class="b" d="M225.9,204.32h-7.92v13.41h-7.74v-37.31h16.25c3.75,0,6.73,.96,8.96,2.89,2.23,1.92,3.34,4.9,3.34,8.93,0,4.4-1.11,7.52-3.34,9.34-2.23,1.82-5.41,2.73-9.54,2.73Zm3.64-7.77c1.01-.89,1.52-2.31,1.52-4.25s-.51-3.32-1.53-4.15c-1.02-.83-2.45-1.24-4.29-1.24h-7.26v10.98h7.26c1.84,0,3.27-.45,4.3-1.34Z"/><path class="b" d="M268.98,201.54v16.2h-7.37v-16.78c0-1.49-.25-2.68-.76-3.59-.66-1.28-1.91-1.92-3.75-1.92s-3.35,.64-4.34,1.91c-.99,1.27-1.48,3.09-1.48,5.45v14.93h-7.19v-37.18h7.19v13.19c1.05-1.6,2.26-2.72,3.63-3.35,1.38-.63,2.82-.95,4.34-.95,1.7,0,3.25,.3,4.64,.89,1.39,.59,2.53,1.49,3.43,2.71,.76,1.03,1.22,2.09,1.39,3.18s.25,2.86,.25,5.33Z"/><path class="b" d="M298.72,193.64c2.33,2.92,3.49,6.37,3.49,10.35s-1.16,7.51-3.49,10.39c-2.33,2.88-5.86,4.32-10.6,4.32s-8.28-1.44-10.6-4.32c-2.33-2.88-3.49-6.34-3.49-10.39s1.16-7.43,3.49-10.35,5.86-4.38,10.6-4.38,8.28,1.46,10.6,4.38Zm-10.63,1.72c-2.11,0-3.73,.75-4.87,2.24-1.14,1.49-1.71,3.62-1.71,6.39s.57,4.9,1.71,6.4c1.14,1.5,2.76,2.25,4.87,2.25s3.73-.75,4.86-2.25c1.13-1.5,1.7-3.64,1.7-6.4s-.57-4.9-1.7-6.39c-1.13-1.49-2.75-2.24-4.86-2.24Z"/><path class="b" d="M320,212.6v5.39l-3.42,.13c-3.41,.12-5.74-.47-6.98-1.77-.81-.83-1.22-2.1-1.22-3.82v-16.98h-3.85v-5.14h3.85v-7.7h7.14v7.7h4.48v5.14h-4.48v14.58c0,1.13,.14,1.83,.43,2.11s1.16,.42,2.63,.42c.22,0,.45,0,.7-.01,.24,0,.48-.02,.72-.04Z"/><path class="b" d="M347.64,193.64c2.33,2.92,3.49,6.37,3.49,10.35s-1.16,7.51-3.49,10.39c-2.33,2.88-5.86,4.32-10.6,4.32s-8.28-1.44-10.6-4.32c-2.33-2.88-3.49-6.34-3.49-10.39s1.16-7.43,3.49-10.35,5.86-4.38,10.6-4.38,8.28,1.46,10.6,4.38Zm-10.63,1.72c-2.11,0-3.73,.75-4.87,2.24-1.14,1.49-1.71,3.62-1.71,6.39s.57,4.9,1.71,6.4c1.14,1.5,2.76,2.25,4.87,2.25s3.73-.75,4.86-2.25c1.13-1.5,1.7-3.64,1.7-6.4s-.57-4.9-1.7-6.39c-1.13-1.49-2.75-2.24-4.86-2.24Z"/><path class="b" d="M364.09,222.57c.78,.66,2.08,.99,3.92,.99,2.6,0,4.34-.87,5.21-2.61,.57-1.11,.86-2.99,.86-5.62v-1.77c-.69,1.18-1.44,2.07-2.23,2.66-1.43,1.1-3.3,1.65-5.59,1.65-3.54,0-6.37-1.25-8.49-3.73-2.12-2.49-3.18-5.86-3.18-10.11s1.02-7.55,3.06-10.34c2.04-2.79,4.94-4.19,8.68-4.19,1.38,0,2.59,.21,3.62,.63,1.76,.72,3.17,2.06,4.25,4v-3.97h7.01v26.17c0,3.56-.6,6.24-1.8,8.05-2.06,3.11-6,4.66-11.84,4.66-3.53,0-6.4-.69-8.63-2.08-2.23-1.38-3.46-3.45-3.7-6.2h7.85c.2,.84,.53,1.45,.99,1.82Zm-1.22-14.25c.98,2.33,2.73,3.49,5.26,3.49,1.69,0,3.11-.64,4.28-1.91,1.16-1.27,1.75-3.3,1.75-6.09,0-2.62-.55-4.61-1.66-5.97-1.1-1.37-2.59-2.05-4.44-2.05-2.53,0-4.28,1.19-5.24,3.57-.51,1.26-.76,2.83-.76,4.68,0,1.6,.27,3.03,.81,4.28Z"/><path class="b" d="M401.83,196.8c-2.9,0-4.85,.95-5.85,2.84-.56,1.06-.83,2.7-.83,4.91v13.19h-7.26v-27.59h6.88v4.81c1.11-1.84,2.09-3.1,2.91-3.77,1.35-1.13,3.11-1.7,5.27-1.7,.13,0,.25,0,.34,.01,.09,0,.3,.02,.62,.04v7.39c-.46-.05-.86-.08-1.22-.1-.35-.02-.64-.03-.86-.03Z"/><path class="b" d="M409.17,193.14c1.91-2.43,5.18-3.64,9.82-3.64,3.02,0,5.7,.6,8.05,1.8,2.35,1.2,3.52,3.46,3.52,6.78v12.65c0,.88,.02,1.94,.05,3.19,.05,.95,.19,1.59,.43,1.92,.24,.34,.59,.62,1.06,.84v1.06h-7.85c-.22-.56-.37-1.08-.45-1.57-.09-.49-.15-1.05-.2-1.67-1,1.08-2.14,2-3.44,2.76-1.55,.89-3.31,1.34-5.27,1.34-2.49,0-4.56-.71-6.19-2.14s-2.44-3.45-2.44-6.06c0-3.39,1.31-5.85,3.92-7.37,1.43-.83,3.54-1.42,6.33-1.77l2.45-.3c1.33-.17,2.29-.38,2.86-.63,1.03-.44,1.54-1.12,1.54-2.05,0-1.13-.39-1.91-1.18-2.34-.79-.43-1.94-.65-3.46-.65-1.7,0-2.91,.42-3.62,1.26-.51,.62-.85,1.47-1.01,2.53h-6.96c.15-2.41,.83-4.4,2.03-5.95Zm5.37,19.39c.68,.56,1.5,.84,2.48,.84,1.55,0,2.98-.45,4.29-1.37s1.99-2.57,2.04-4.99v-2.68c-.46,.29-.92,.52-1.38,.7-.46,.18-1.1,.34-1.91,.49l-1.62,.3c-1.52,.27-2.61,.6-3.27,.99-1.11,.66-1.67,1.68-1.67,3.06,0,1.23,.35,2.12,1.04,2.66Z"/><path class="b" d="M460.07,193.11c2.23,2.38,3.34,5.87,3.34,10.48,0,4.86-1.09,8.56-3.28,11.11s-5,3.82-8.44,3.82c-2.2,0-4.02-.55-5.47-1.64-.79-.61-1.57-1.49-2.33-2.66v14.38h-7.14v-38.45h6.91v4.07c.77-1.2,1.6-2.14,2.48-2.83,1.6-1.23,3.51-1.85,5.72-1.85,3.22,0,5.96,1.19,8.2,3.57Zm-4.1,10.83c0-2.13-.48-4.01-1.46-5.65-.97-1.64-2.54-2.45-4.72-2.45-2.62,0-4.41,1.24-5.39,3.72-.5,1.31-.76,2.99-.76,5.01,0,3.21,.85,5.46,2.56,6.76,1.01,.76,2.21,1.14,3.59,1.14,2.01,0,3.54-.78,4.59-2.33,1.06-1.55,1.58-3.62,1.58-6.2Z"/><path class="b" d="M493.55,201.54v16.2h-7.36v-16.78c0-1.49-.25-2.68-.76-3.59-.66-1.28-1.91-1.92-3.75-1.92s-3.35,.64-4.34,1.91c-.98,1.27-1.48,3.09-1.48,5.45v14.93h-7.18v-37.18h7.18v13.19c1.05-1.6,2.26-2.72,3.63-3.35,1.37-.63,2.82-.95,4.34-.95,1.7,0,3.25,.3,4.64,.89,1.39,.59,2.54,1.49,3.43,2.71,.76,1.03,1.22,2.09,1.39,3.18,.17,1.09,.25,2.86,.25,5.33Z"/><path class="b" d="M511.49,210.5l5.7-20.35h7.67l-9.46,27.13c-1.82,5.23-3.26,8.47-4.33,9.73s-3.19,1.89-6.38,1.89c-.64,0-1.16,0-1.54-.01-.39,0-.97-.04-1.74-.09v-5.77l.91,.05c.71,.03,1.38,0,2.03-.08,.64-.09,1.18-.28,1.62-.58,.42-.29,.81-.89,1.18-1.8s.51-1.47,.44-1.67l-10.12-28.8h8.02l6.02,20.35Z"/></g></svg>