<?xml version="1.0" encoding="UTF-8"?><svg id="a" xmlns="http://www.w3.org/2000/svg" viewBox="0 0 705.92 91.79"><defs><style>.b{fill:#fff;}</style></defs><path class="b" d="M42.22,78.19s16.46,4.29,30.77-7.87c14.31-12.17,26.48-5.72,31.49-2.86s10.02,4.29,10.73,10.73c2.86,4.29,3.58-1.43,8.59-1.43s5.01,.72,7.87-2.86c2.86-3.58,7.16-5.01,7.16-5.01,0,0,5.72-5.72-5.01-1.43s-15.03,2.86-18.61,.72-15.74-7.87-15.74-17.17-.72-8.59,1.43-9.3,17.17-4.29,14.31-26.48c-.72-2.15,2.15-2.15,5.01,0s22.18,12.17,21.47,9.3,0-4.29,.72-6.44c0,0,1.03-2.5-1.99-4.47-.87-1.97,1.99-3.4,3.42-1.97s1.43,2.15,2.15,3.58,3.58,3.58,4.29,4.29,2.15,2.15,2.86,4.29-.72,2.15,3.58,1.43,10.02-.72,12.17,0,0,0,1.43-1.43,3.58-1.88,0-2.73-6.44-.85-6.44-.85c0,0-2.86-2.86-4.29-5.72s-.72-7.16-15.74-7.87c-7.16,0-5.72,1.43-10.73,1.43-3.58-.72-5.72-4.29-9.3-5.72s-4.29-2.86-13.6-2.15c0,0-4.29-.72-9.3,5.72-5.01,6.44-6.44,3.58-6.44,3.58,0,0-8.59-7.87-21.47-7.16-7.16,.72-12.88,2.86-16.46,2.86s-5.01,2.86-12.88,7.16-10.73,5.01-14.31,8.59-6.44,7.87-7.87,12.17c-1.43,4.29-10.02,14.31-10.02,14.31,0,0-.72,.72,.72,.72,0,0-4.29,5.72-4.29,13.6,0,0-7.87,6.19-7.87,11.68s8.59-5.24,9.3-4.53,2.15,1.43,2.86,0,2.15-5.72,5.72-6.44,7.16-2.15,7.87-2.86,.72,5.72,.72,5.72c0,0-10.73,2.86-12.88,10.02,0,0,2.15,4.29,5.01,5.01s6.44-5.72,10.02-5.01c3.58,.72,5.01,.72,6.44,.72s2.15,1.43,2.15,3.58v9.3s0,2.86,2.86,2.86,2.15-2.86,5.72-2.15c3.58,.72,4.29,1.43,5.01-.72s2.15-1.43,4.29-2.15,1.43-1.43-6.44-3.58-6.44-5.01-6.44-5.01Z"/><g><path class="b" d="M198.81,3.14V7.63c-1.54-1.54-3.63-3.08-5.81-3.08h-3.14V20.69c0,.29,0,.58,.03,.87v.1c.19,2.18,.9,3.37,1.19,3.75l.13,.16h-7.7l.13-.16c.35-.48,1.22-1.99,1.22-4.84l.03-16.07h-3.18c-2.18,0-4.27,1.54-5.81,3.08V3.08l22.91,.06Z"/><path class="b" d="M214.15,25.5c.35-.48,1.22-1.99,1.22-4.84v-4.56c0-4.78-.51-8.02-3.59-8.02-3.91,0-5.13,3.24-5.13,8.02v4.56c0,1.93,.38,3.21,.74,4.01l.03,.06c.22,.42,.42,.67,.51,.8l.06,.06h-7.7l.13-.16c.35-.48,1.22-1.99,1.22-4.84V5.16c0-3.5-1.35-4.97-1.35-4.97h2.28c2.25,0,4.07,1.83,4.07,4.07v5.26c1.12-1.6,2.44-2.85,5.1-2.85,6.51,0,8.6,4.33,8.6,9.66v4.3c0,1.93,.39,3.21,.74,4.01l.03,.06c.22,.42,.42,.67,.51,.8l.06,.06h-7.7l.13-.16,.03,.1Z"/><path class="b" d="M235.58,24.22c4.88,0,8.21-4.59,8.21-4.59-1.32,3.43-5.2,6.32-9.91,6.32-6.35,0-10.33-4.39-10.33-9.72s3.98-9.59,10.33-9.59c5.04,0,8.98,2.66,10.11,7.03,.48,1.89-.9,3.59-2.82,3.59h-12.35c.74,3.47,2.86,6.96,6.8,6.96h-.03Zm-3.43-15.98c-3.3,.9-3.85,4.46-3.63,7.57h9.5c.67,0,1.19-.71,1.09-1.35-.58-3.66-3.18-7.25-6.93-6.22h-.03Z"/></g><g><path class="b" d="M191.66,68.86c0,.06-.06,.06-.06,.12-1.27,3.27-7.92,10.34-21.84,10.34s-23.11-10.04-23.17-22.38c-.06-12.34,8.77-22.2,23.11-22.26,9.68-.06,18.63,4.17,21.54,11.01,1.15,2.6-.79,5.51-3.63,5.51l-5.44,.06c2.18-8.23-7.86-15.55-16.39-13.61-9.62,2.24-11.98,14.28-10.22,22.2,1.82,7.92,8.17,16.94,18.63,16.88h.12c4.66,0,6.71-4.9,6.71-8.65s-3.21-6.71-6.65-7.74l-4.72-1.39h21.96l.06,9.92Z"/><path class="b" d="M234.54,69.83c0,5.44,2.54,8.47,2.54,8.47h-6.47c-2.54,0-5.44-2.06-5.44-4.6-2.18,3.03-4.66,5.38-9.68,5.38-12.28,0-19.12-8.17-19.12-18.21s6.84-18.21,19.12-18.21c2,0,4.6,.36,6.11,.97,4.96,2.12,10.59,2,15.55-.24,0,0-2.54,3.15-2.54,9.38l-.06,17.06Zm-19.12,6.47c7.38,0,9.68-9.68,9.68-15.49,0-8.95-2.3-15.55-9.68-15.55-5.81,0-9.68,6.59-9.68,15.55s3.87,15.55,9.68,15.55v-.06Z"/><path class="b" d="M241.31,78.12c.67-.91,2.3-3.75,2.3-9.13v-29.1c0-6.59-2.54-9.38-2.54-9.38h4.29c4.24,0,7.68,3.45,7.68,7.68v30.85c0,3.63,.73,6.05,1.39,7.56l.06,.12c.42,.79,.79,1.27,.97,1.51l.12,.12h-14.46l.24-.3-.06,.06Z"/><path class="b" d="M259.58,78.12c.67-.91,2.3-3.75,2.3-9.13v-29.1c0-6.59-2.54-9.38-2.54-9.38h4.29c4.24,0,7.68,3.45,7.68,7.68v30.85c0,3.63,.73,6.05,1.39,7.56l.06,.12c.42,.79,.79,1.27,.97,1.51l.12,.12h-14.46l.24-.3-.06,.06Z"/><path class="b" d="M316.93,60.82c0,10.04-6.17,18.21-19.48,18.21s-19.48-8.17-19.48-18.21,6.17-18.21,19.48-18.21,19.48,8.17,19.48,18.21Zm-14.22,14.64c7.68-2.78,6.41-11.8,4.17-18.03-2.24-6.23-7.02-14.03-14.7-11.25-7.68,2.78-6.35,11.86-4.11,18.09,2.24,6.23,7.02,13.97,14.7,11.19h-.06Z"/><path class="b" d="M343.6,42.49c12.28,0,18.15,8.17,18.15,18.21s-4.66,18.21-16.94,18.21c-5.02,0-9.68-2.36-11.86-5.38v7.68l.06,.12c0,5.38,1.63,8.23,2.3,9.13l.24,.3h-14.52l.12-.12c.18-.24,.54-.73,.97-1.51l.06-.12c.61-1.33,1.27-3.39,1.45-6.29v-30.01c0-5.87-2.24-8.95-2.54-9.32,4.9,2.18,10.53,2.3,15.49,.18,1.45-.61,4.96-.97,6.96-.97l.06-.12Zm-.91,33.82c5.81,0,9.68-6.53,9.68-15.55s-3.87-15.55-9.68-15.55c-7.38,0-9.68,6.59-9.68,15.55,0,5.81,2.3,15.49,9.68,15.49v.06Z"/><path class="b" d="M366.22,78.06c.67-.91,2.3-3.75,2.3-9.13v-16.15c0-6.59-2.54-9.38-2.54-9.38h4.29c4.24,0,7.68,3.45,7.68,7.68v17.91c0,3.63,.73,6.05,1.39,7.56l.06,.12c.42,.79,.79,1.27,.97,1.51l.12,.12h-14.46l.24-.3-.06,.06Zm7.08-38.96c-2.78,0-5.08-2.3-5.08-5.14s2.3-5.14,5.14-5.14,5.14,2.3,5.14,5.14-2.3,5.14-5.14,5.14h-.06Z"/><path class="b" d="M411.71,78.18c.67-.91,2.3-3.75,2.3-9.13v-10.1c0-8.95-2.18-13.49-7.99-13.49-7.38,0-9.62,4.54-9.62,13.49l.06,10.16c0,3.63,.73,6.05,1.39,7.56l.06,.12c.42,.79,.79,1.27,.97,1.51l.12,.12h-14.52l.24-.3c.67-.91,2.3-3.75,2.3-9.13l-.06-16.15c0-3.09-.61-5.45-1.21-7.02-.54-1.39-1.09-2.12-1.21-2.3,4.9,2.18,10.53,2.3,15.49,.18,1.45-.61,4.05-.97,6.05-.97,12.28,0,16.58,8.17,16.58,18.21v8.11c0,3.63,.73,6.05,1.39,7.56l.06,.12c.42,.79,.79,1.27,.97,1.51l.12,.12h-13.67l.24-.3-.06,.12Z"/><path class="b" d="M433.96,70.13c0,7.2,33.39-4.23,33.39,9.8,0,8.11-10.65,11.86-21.23,11.86-9.07,0-15.73-1.94-18.87-6.23-1.88-2.54-.06-6.17,3.09-6.17h6.96s-5.99,9.68,8.77,9.68c9.07,0,11.8-4.54,11.8-7.8,0-8.35-28.37,.36-28.37-9.44,0-3.02,2.42-4.72,4.72-5.69-2.96-2.18-4.72-5.44-4.72-9.8,0-11.01,9.13-13.73,17.91-13.73,4.72,0,8.35,.79,12.16,3.08l9.68-2.3s-2,5.5-5.81,5.5h-1.03s2.96,2.42,2.96,7.38c0,10.16-9.07,13.67-18.03,13.67-3.69,0-7.68-.61-11.07-2.06-.91,.48-2.36,1.15-2.36,2.12l.06,.12Zm13.49-24.74c-7.68,0-8.53,7.2-8.53,11.01,0,2.96,.85,11.07,8.47,11.07s8.53-7.92,8.53-11.01c0-3.69-.79-11.07-8.53-11.07h.06Z"/><path class="b" d="M538.61,68.86c0,.06-.06,.06-.06,.12-1.27,3.27-7.92,10.34-21.84,10.34s-23.11-10.04-23.17-22.38c-.06-12.34,8.77-22.2,23.11-22.26,9.68-.06,18.63,4.17,21.54,11.01,1.15,2.6-.79,5.51-3.63,5.51l-5.44,.06c2.18-8.23-7.86-15.55-16.39-13.61-9.62,2.24-11.98,14.28-10.22,22.2,1.82,7.92,8.17,16.94,18.63,16.88h.12c4.66,0,6.72-4.9,6.72-8.65s-3.21-6.71-6.65-7.74l-4.72-1.39h21.96l.06,9.92Z"/><path class="b" d="M582.41,60.82c0,10.04-6.17,18.21-19.48,18.21s-19.48-8.17-19.48-18.21,6.17-18.21,19.48-18.21,19.48,8.17,19.48,18.21Zm-14.22,14.64c7.68-2.78,6.41-11.8,4.17-18.03-2.24-6.23-7.02-14.03-14.7-11.25-7.68,2.78-6.35,11.86-4.11,18.09,2.24,6.23,7.02,13.97,14.7,11.19h-.06Z"/><path class="b" d="M625.72,60.82c0,10.04-6.17,18.21-19.48,18.21s-19.48-8.17-19.48-18.21,6.17-18.21,19.48-18.21,19.48,8.17,19.48,18.21Zm-14.22,14.64c7.68-2.78,6.41-11.8,4.17-18.03-2.24-6.23-7.02-14.03-14.7-11.25-7.68,2.78-6.35,11.86-4.11,18.09,2.24,6.23,7.02,13.97,14.7,11.19h-.06Z"/><path class="b" d="M646.82,57.07c8.59,1.33,16.33,3.39,16.33,11.25s-8.59,10.83-16.94,10.83c-5.5,0-12.46-1.94-15.06-6.11-1.27-2,.36-4.6,2.72-4.6h5.2c0,6.11,3.99,8.11,7.2,8.11,3.02,0,7.44-2,7.44-8.11,0-2.6-3.57-3.51-8.05-4.17-8.65-1.33-15.55-3.93-15.55-11.01s9.44-10.28,15.97-10.53c4.9,0,12.7,2.06,15.12,7.44,.85,1.94-.79,4.11-2.9,4.11h-5.5c0-6.9-4.23-8.95-6.59-8.95-2.72,0-6.71,2.06-6.71,7.86,0,2.54,4.05,3.45,7.32,3.93v-.06Z"/><path class="b" d="M689.89,75.82c9.2,0,15.49-8.65,15.49-8.65-2.48,6.47-9.8,11.92-18.69,11.92-11.98,0-19.48-8.29-19.48-18.33s7.5-18.09,19.48-18.09c9.5,0,16.94,5.02,19.06,13.25,.91,3.57-1.69,6.78-5.32,6.78h-23.29c1.39,6.53,5.38,13.13,12.82,13.13h-.06Zm-6.47-30.13c-6.23,1.69-7.26,8.41-6.84,14.28h17.91c1.27,0,2.24-1.33,2.06-2.54-1.09-6.9-5.99-13.67-13.07-11.74h-.06Z"/></g></svg>